<svg width="605" height="220" xmlns="http://www.w3.org/2000/svg">
 <style type="text/css">.st0{fill:#00B5D1;}</style>

 <g>
  <title>background</title>
  <rect fill="none" id="canvas_background" height="222" width="607" y="-1" x="-1"/>
 </g>
 <g>
  <title>Layer 1</title>
  <g id="svg_1">
   <path id="svg_2" d="m116.2,98.9l0,38.6c0,9.9 4.8,14.7 14.7,14.7l4.3,0c9.9,0 14.7,-4.8 14.7,-14.7l0,-18.9l22.6,0l0,18.1c0,24.8 -12.5,37.6 -37.6,37.6l-4.8,0c-24.8,0 -37.6,-12.5 -37.6,-34.6l0,-94.8c0,-27.7 12.5,-40.5 37.6,-40.5l4.8,0c24.8,0 37.6,12.5 37.6,37.6l0,56.7l-56.2,0l0,0.2l-0.1,0zm0,-22.7l33.3,0l0,-35.2c0,-9.9 -4.8,-14.7 -14.7,-14.7l-3.7,0c-9.9,0 -14.7,4.8 -14.7,14.7l0,35.2l-0.2,0z"/>
   <path id="svg_3" d="m187.9,6.4l23.4,0l0,10.7c5.6,-5.9 15.2,-12.5 28.5,-12.5c20,0 29.8,13.3 29.8,32.8l0,103.9c0,19.7 -9.9,32.8 -29.8,32.8c-13.6,0 -22.9,-6.4 -28.5,-12l0,53.6l-23.4,0l0,-209.3zm23.4,137c6.4,5.6 13.9,8.5 21.6,8.5c8.5,0 13.6,-4 13.6,-13.6l0,-98c0,-9.6 -4.8,-13.6 -13.6,-13.6c-7.7,0 -15.2,3.2 -21.6,8.5l0,108.2z"/>
   <path id="svg_4" d="m283.8,114.6c0,-20.5 6.7,-28.8 24.5,-34.9l31.4,-10.7l0,-28c0,-9.9 -4.8,-15.2 -14.7,-15.2l-3.7,0c-9.9,0 -14.7,5.3 -14.7,15.2l0,23.4l-22.6,0l0,-22.6c0,-24.8 12.5,-37.6 37.6,-37.6l4.5,0c24.8,0 37.6,12.5 37.6,37.6l0,130.3l-23.4,0l0,-10.4c-6.4,6.1 -15.2,12.3 -28.5,12.3c-18.7,0 -27.4,-10.7 -27.4,-29.3l0,-30.1l-0.6,0zm56,29.6l0,-54.6l-21.3,8c-8.5,3.5 -11.5,7.7 -11.5,17.3l0,25.3c0,8 4,12 11.5,12c7.1,-0.3 13.5,-2.7 21.3,-8z"/>
   <path id="svg_5" d="m457.5,172.2l-23.4,0l0,-133.5c0,-8.3 -4,-12 -11.2,-12c-6.4,0 -13.3,2.4 -21.6,8.3l0,137.2l-23.4,0l0,-165.8l23.4,0l0,10.7c6.7,-6.4 15.7,-12.5 28.5,-12.5c12,0 20,4.8 24.2,13.6c8.3,-7.2 18.1,-13.6 31.7,-13.6c18.1,0 27.4,11.2 27.4,29.3l0,138.5l-23.4,0l0,-133.7c0,-8.3 -4,-12 -11.2,-12c-6.4,0 -13.3,2.4 -21.6,8.3l0,137.2l0.6,0z"/>
   <path id="svg_6" d="m62.9,21.6l0,30.6l-39.2,37.3l39.2,36.8l0,31.2l-59.9,-56.5l0,-22.4l59.9,-57z" class="st0"/>
   <path id="svg_7" d="m603,78.6l0,22.4l-59.9,56.5l0,-31.2l39.2,-36.8l-39.2,-37.5l0,-30.4l59.9,57z" class="st0"/>
  </g>
 </g>
</svg>